<?xml version="1.0" encoding="UTF-8" standalone="no"?>
<svg
   version="1.1"
   x="0px"
   y="0px"
   width="950"
   height="350"
   viewBox="0 0 950 349.99999"
   enable-background="new 0 0 1528.911 380.255"
   xml:space="preserve"
   id="svg30"
   sodipodi:docname="weapon_robust_sog.svg"
   inkscape:version="1.3.2 (091e20e, 2023-11-25, custom)"
   xmlns:inkscape="http://www.inkscape.org/namespaces/inkscape"
   xmlns:sodipodi="http://sodipodi.sourceforge.net/DTD/sodipodi-0.dtd"
   xmlns="http://www.w3.org/2000/svg"
   xmlns:svg="http://www.w3.org/2000/svg"
   xmlns:rdf="http://www.w3.org/1999/02/22-rdf-syntax-ns#"
   xmlns:cc="http://creativecommons.org/ns#"
   xmlns:dc="http://purl.org/dc/elements/1.1/"><metadata
   id="metadata36"><rdf:RDF><cc:Work
       rdf:about=""><dc:format>image/svg+xml</dc:format><dc:type
         rdf:resource="http://purl.org/dc/dcmitype/StillImage" /></cc:Work></rdf:RDF></metadata><defs
   id="defs34" /><sodipodi:namedview
   pagecolor="#ff00ff"
   bordercolor="#666666"
   borderopacity="1"
   objecttolerance="10"
   gridtolerance="10"
   guidetolerance="10"
   inkscape:pageopacity="0"
   inkscape:pageshadow="2"
   inkscape:window-width="3440"
   inkscape:window-height="1406"
   id="namedview32"
   showgrid="false"
   inkscape:zoom="1.4142136"
   inkscape:cx="489.3179"
   inkscape:cy="-47.022601"
   inkscape:window-x="-11"
   inkscape:window-y="-11"
   inkscape:window-maximized="1"
   inkscape:current-layer="layer2"
   fit-margin-top="0"
   fit-margin-left="0"
   fit-margin-right="0"
   fit-margin-bottom="0"
   inkscape:document-rotation="0"
   inkscape:pagecheckerboard="true"
   inkscape:showpageshadow="2"
   inkscape:deskcolor="#000000" />


<g
   inkscape:groupmode="layer"
   id="layer2"
   inkscape:label="WHITE"
   style="display:inline"><path
     style="fill:#ffffff;stroke:#ffffff;stroke-width:0.0209369"
     d="m 501.10407,74.754851 c -12.70539,3.702272 -25.36196,7.60164 -37.9541,11.6794 -15.49437,5.396847 -30.77388,11.390717 -46.1293,17.166869 -17.48642,6.76687 -35.07269,13.32713 -52.18862,20.99977 -4.11379,2.13705 -8.53256,3.91679 -13.23955,3.96452 -12.56069,0.68948 -25.32608,-1.72792 -36.89926,-6.91452 -4.16653,-1.72039 -7.46835,-4.8299 -11.1292,-7.35039 -7.90648,-4.80808 -17.52799,-5.43132 -26.55584,-5.13524 -14.40758,0.98546 -28.76104,2.64555 -43.14483,3.92337 -74.23719,7.00234 -148.484415,13.96552 -222.722076,20.97493 -4.2112332,0.50964 -6.6263939,4.73458 -7.6590693,8.45381 -2.4147613,9.257 -1.0137202,18.93912 0.1236885,28.27868 2.3311994,19.39474 5.0649252,38.7478 6.8301418,58.19647 1.592991,20.64085 2.750497,41.31967 4.49668,61.95077 0.329424,2.42259 0.236123,5.66744 2.828001,6.89489 1.664163,0.15425 3.186151,-1.03951 4.769384,-1.46214 34.687364,-13.50196 69.547698,-26.55527 104.3477,-39.76319 32.8598,-12.46709 65.79279,-24.74189 98.63381,-37.25767 3.35863,-1.4639 6.83862,-2.77827 10.54478,-2.93452 10.35575,-0.74126 20.65531,2.23379 30.46854,5.37396 14.35704,4.23703 29.20013,7.12303 44.185,7.62748 3.53276,-0.0605 7.18192,0.23674 10.6218,-0.68727 1.63036,-1.49593 2.58508,-3.65841 3.93819,-5.41545 7.67025,-11.68953 15.74431,-23.25774 25.69822,-33.13887 12.12808,-12.47625 26.52283,-22.82979 42.60153,-29.57981 9.66384,-4.18513 19.91688,-6.73977 30.30392,-8.51608 4.4684,-1.04903 8.5375,-3.16923 12.95473,-4.34955 19.41944,-5.80706 39.35611,-9.63087 59.25633,-13.38396 5.32204,-1.00575 10.70374,-1.88566 15.99972,-2.90914 1.25164,-1.0415 1.29696,-3.05547 2.05642,-4.48809 2.94299,-8.18868 6.05049,-16.33825 8.48236,-24.6957 0.88615,-4.718254 1.1816,-10.225657 -2.09014,-14.148274 -1.74247,-2.329904 -4.28257,-3.807707 -6.98794,-4.748619 -4.00184,-1.739918 -8.26143,-3.305604 -12.12411,-5.093415 0.31344,-1.071305 1.57636,-2.807198 0.038,-3.451185 -0.12136,0.03752 -0.23439,-0.08431 -0.35495,-0.06184 z"
     id="path1" /><path
     style="fill:#ffffff;stroke:#ffffff;stroke-width:0.0104684"
     d="m 537.42782,58.249695 c -3.50554,0.564385 -6.95837,1.405463 -10.33377,2.507109 -13.0274,4.03615 -26.02842,8.157155 -39.04392,12.231546 -5.37854,-1.293907 -10.73905,-2.841358 -16.26887,-3.332026 -1.58051,-0.0057 -3.21005,-0.22055 -4.75954,0.147073 -1.6434,0.785217 -2.17554,2.737211 -2.69703,4.330635 -0.81597,3.063975 -1.28093,6.234945 -1.37593,9.402907 -0.0476,0.929865 1.02219,1.454934 1.78912,1.021015 13.47511,-4.160134 26.95658,-8.293328 40.44055,-12.424393 -0.59126,1.644207 -1.39011,3.246008 -1.84339,4.922177 -0.0491,1.171888 1.40443,1.244097 2.18646,1.682492 3.95123,1.662317 7.97351,3.170759 11.86467,4.967853 4.40199,2.468378 7.21915,7.500874 6.99337,12.54812 0.0702,2.310742 -0.0933,4.700217 -0.747,6.878067 -1.54635,5.43585 -3.53218,10.73613 -5.39141,16.07049 -1.62088,4.45238 -3.1654,8.9215 -5.00181,13.2911 -11.66267,2.03402 -23.32641,4.08518 -34.91878,6.49188 -0.8742,0.31425 -0.7791,1.33254 -0.44005,2.01511 0.49955,1.41218 0.85109,2.90559 1.47105,4.25982 0.65046,0.98612 1.7726,0.14786 2.56387,-0.15413 5.09488,-2.06678 10.38945,-3.37625 15.7784,-4.31902 1.17873,-0.19955 2.36562,-0.34446 3.55291,-0.48184 -0.0529,1.06929 0.10458,2.21511 -0.0764,3.23775 -3.78537,4.43291 -6.7587,9.72123 -7.84318,15.49371 -0.40089,2.2034 -0.55935,4.47279 -0.46001,6.69843 0.14534,1.06142 1.81821,0.96622 1.93144,-0.076 0.54031,-5.5658 2.3594,-11.06478 5.39918,-15.74981 4.09632,-6.35202 9.9168,-11.41376 16.47355,-15.11296 0.72589,-0.5144 0.43575,-1.47181 0.49373,-2.2277 0.88155,-0.17647 1.31719,0.093 1.09294,1.0223 -0.0627,0.79967 -0.0613,2.01165 1,2.07064 2.90312,-0.0154 5.86953,0.50573 8.65049,1.4431 3.28898,1.11559 6.52091,3.29002 7.72967,6.68936 0.89362,2.27665 0.50853,4.61914 0.58671,7.01162 -0.0395,6.47417 -0.48986,13.34583 -3.90353,19.05112 -2.77328,4.73311 -7.69041,7.78878 -12.83517,9.37253 -7.39131,2.444 -15.26589,3.76119 -23.07207,3.53526 -3.64934,-0.006 -7.31697,-0.21297 -10.92319,-0.86524 -6.94172,-1.14966 -13.63633,-3.11997 -19.97887,-6.18652 -2.20328,-0.98525 -4.2418,-2.3412 -5.85949,-4.11362 -3.81006,-3.73746 -6.51081,-8.82723 -6.68105,-14.22926 -0.0753,-3.59352 0.17243,-7.17973 1.02053,-10.67579 0.30292,-0.67299 0.54959,-1.73826 -0.34174,-2.08142 -0.87931,-0.27824 -1.77197,0.33351 -2.64982,0.44209 -5.71451,1.4855 -11.44815,2.95135 -17.03429,4.86982 -0.99916,0.34261 -0.81785,1.92911 0.22514,2.04833 3.19499,0.62535 6.40921,1.88839 8.61109,4.3792 2.00155,2.23525 2.65257,5.20325 4.22786,7.70796 2.6566,4.60208 6.3987,8.50404 10.51348,11.82799 6.87944,5.39662 15.38353,8.3197 23.96148,9.57708 4.28853,0.66848 8.63094,0.93425 12.96924,0.81741 4.37139,-0.004 8.74366,-0.20424 13.078,-0.79453 5.5001,-0.71149 11.00054,-1.6237 16.32915,-3.18556 3.67863,-1.09867 7.14815,-3.01679 9.77404,-5.85049 4.33958,-4.54582 6.12037,-10.86565 6.78179,-16.96953 0.42305,-4.95048 0.50389,-9.93817 0.22426,-14.899 -0.47679,-5.38753 -3.60101,-10.59912 -8.43271,-13.15566 31.54809,-3.43983 63.10693,-6.87214 94.66057,-10.2793 3.29698,-0.0222 6.60649,0.0441 9.89567,-0.0331 1.20107,-0.19863 0.83482,-1.64016 0.88597,-2.51317 0.0316,-7.31257 -0.0716,-14.70889 0.10013,-21.970324 0.0185,0.277429 0.0142,-1.025606 -0.57683,-1.080321 -1.4215,-0.322957 -2.92244,-0.124867 -4.37344,-0.211661 -27.6066,-0.136168 -55.2138,-0.10897 -82.82065,-0.170149 -3.61848,-0.642867 -7.14652,-2.217687 -9.67861,-4.938741 -3.76644,-3.872366 -5.16205,-9.372651 -5.54918,-14.615331 -0.38472,-5.092116 0.13878,-10.575108 3.11019,-14.888169 0.48056,-0.623084 1.08761,-1.640186 0.28625,-2.280676 -0.24109,-0.105305 -0.46581,-0.247949 -0.74117,-0.197723 z"
     id="path3" /><path
     style="fill:#ffffff;stroke:#ffffff;stroke-width:0.00261711"
     d="m 479.17847,144.14811 c -0.48634,0.0617 -0.90945,0.33989 -1.35822,0.51882 -3.6481,1.67947 -7.15453,3.81996 -9.92608,6.76088 -1.81546,1.93114 -3.28603,4.2284 -4.0637,6.77371 -0.13801,0.54139 0.24493,1.14735 0.80233,1.23104 0.50214,0.10395 1.00624,-0.24457 1.16413,-0.71889 0.72286,-1.69288 1.70005,-3.27426 2.88852,-4.67978 2.1689,-2.58617 4.9685,-4.64796 7.92454,-6.32254 1.04135,-0.59892 2.12443,-1.09675 3.1957,-1.64756 0.54683,-0.32167 0.65897,-1.16548 0.19081,-1.6025 -0.20449,-0.22517 -0.51807,-0.33061 -0.81803,-0.31318 z"
     id="path4" /><path
     style="fill:#ffffff;stroke:#ffffff;stroke-width:0.0104684"
     d="m 679.12291,82.783451 c -12.39304,3.423868 -24.78612,6.847591 -37.17924,10.271171 -0.97409,0.561179 -1.32903,1.758282 -2.02344,2.605058 -0.56219,0.843106 -1.318,1.690903 -1.09692,2.786686 0.0221,7.270744 -0.0441,14.554004 0.0331,21.816934 0.19985,1.17568 1.60171,0.87709 2.47634,0.83202 28.79425,-2.3203 57.57554,-4.80005 86.36407,-7.19062 65.4171,-5.48202 130.83472,-10.95773 196.25091,-16.45067 2.83248,0.281227 5.9823,0.771883 8.55432,-0.76321 0.85172,-0.670628 0.34979,-1.913985 0.48473,-2.849485 -0.0447,-2.069834 0.086,-4.164622 -0.069,-6.218774 -0.33161,-0.992711 -1.6491,-0.976295 -2.45486,-1.437149 -2.96372,-1.123618 -5.89493,-2.360764 -8.87889,-3.413646 -13.95683,-0.05678 -27.92348,-0.0081 -41.8841,-0.02433 -66.77024,0 -133.54048,0 -200.31072,0 -0.0888,0.012 -0.17751,0.02401 -0.26626,0.03601 z"
     id="path5" /><path
     style="fill:#ffffff;stroke:#ffffff;stroke-width:0.011"
     d="m 553.78931,52.661133 c -1.61204,1.04282 -3.14082,2.253728 -4.80346,3.196534 -2.2375,0.609836 -4.66561,0.790033 -6.61418,2.175583 -3.87572,2.37249 -5.89682,6.877031 -6.37734,11.259718 -0.29177,4.466398 -0.23157,9.057165 1.22432,13.338503 1.35187,4.34818 4.37093,8.331734 8.65587,10.105102 2.30364,1.049159 4.85011,1.476534 7.37108,1.334813 28.59543,0.05066 57.19093,0.03864 85.78639,0.05361 1.31345,-0.115185 1.20357,-2.12101 2.54037,-2.148436 12.52104,-3.454495 25.04218,-6.908649 37.56338,-10.36255 80.93344,0.0044 161.86687,0.0088 242.80031,0.01318 3.2357,1.241793 6.44957,2.576952 9.69876,3.76094 0.97825,0.254509 1.41541,-0.881133 1.25172,-1.676378 0.0139,-0.903918 0.0278,-1.807837 0.0415,-2.711759 3.41215,-0.02389 6.83812,0.04753 10.24169,-0.03549 1.03265,-0.30563 1.42104,-1.513579 1.88143,-2.390899 1.56781,-3.75709 1.70172,-7.930804 1.57848,-11.945671 -0.21982,-3.537089 -0.63198,-7.234043 -2.44212,-10.348957 -0.7049,-0.836874 -1.96798,-0.335747 -2.92584,-0.490939 -0.8997,-0.01033 -1.79941,-0.0208 -2.69911,-0.03121 -0.0973,-0.949493 0.23916,-2.041213 -0.25611,-2.882295 -0.75814,-0.709429 -1.92817,-0.237583 -2.86889,-0.374541 -127.03466,0 -254.06934,0 -381.10401,0 -0.18139,0.05371 -0.36279,0.107421 -0.54419,0.161132 z"
     id="path8" /></g><g
   inkscape:groupmode="layer"
   id="layer1"
   inkscape:label="LINES"
   style="display:inline"><g
     id="Layer_1"
     transform="matrix(-1,0,0,1,1434.9289,-41.288009)"
     style="display:inline">
	<g
   id="g26">
		<path
   sodipodi:nodetypes="ccccscccccsscsccccccccscccccccsccsc"
   style="opacity:1;fill:none;stroke:#000000;stroke-width:3;stroke-miterlimit:10"
   inkscape:connector-curvature="0"
   id="path2"
   d="m 1010.205,193.954 c 71.332,10 98.5,74.667 103.166,76.667 4.668,2 32.668,0.667 58.668,-8 26,-8.666 35.332,-2 35.332,-2 0,0 202,76 207.334,78.667 5.332,2.666 6,-6 6,-6 l 4,-58 c 1.332,-18.667 4,-36 8,-69.334 4,-33.333 -10,-31.333 -10,-31.333 l -262,-24.667 c 0,0 -22,-2.5 -33,7.5 -11,10 -43.25,15.75 -54.5,9.25 -11.25,-6.5 -100.5,-39.5 -100.5,-39.5 0,0 -0.25,-14.5 -4.25,-16.5 -4,-2 -21.5,3 -21.5,3 l -43,-13.5 -17.75,-3.5 -5,-3.416 H 536.65253 495.8552 v 3.166 h -5 c 0,0 -3.167,2.833 -3.167,13.5 0,10.667 3.5,12.834 3.5,12.834 h 10.1828 v 14.833 c 0,0 1.333,3 9.333,1.667 l 282.5,23.666 h 14.5 l 93.251,10.125 c 0,0 -7.375,4.375 -7.375,14.875 0,10.5 -1.375,30.5 17.375,36.25 0,0 40.625,11.875 65,-5.25 0,0 10.25,-6.75 14.5,-17.5 4.25,-10.75 19.75,-7.5 19.75,-7.5 z"
   stroke-miterlimit="10" />
		<polyline
   style="opacity:1;fill:none;stroke:#000000;stroke-width:3;stroke-miterlimit:10"
   id="polyline4"
   points="501.704,127.954 513.204,123.454     755.704,123.454 793.704,133.954 796.704,138.454 796.704,163.454   "
   stroke-miterlimit="10" />
		<path
   style="opacity:1;fill:none;stroke:#000000;stroke-width:3;stroke-miterlimit:10"
   inkscape:connector-curvature="0"
   id="path6"
   d="m 1009.205,193.788 c -19.93,-9.483 -87.168,-20.5 -87.168,-20.5 0,0 -3,-7.334 -9.332,-26 -6.334,-18.667 7,-22.667 7,-22.667 l 13,-5.333 -2,-5 42,12.916"
   stroke-miterlimit="10" />
		
		<path
   style="opacity:1;fill:none;stroke:#000000;stroke-width:3;stroke-miterlimit:10"
   inkscape:connector-curvature="0"
   id="path10"
   d="m 795.204,135.954 h 87.501 c 0,0 17,1 17,-22 0,-16.833 -12.916,-17.166 -12.916,-17.166"
   stroke-miterlimit="10" />
		<path
   style="opacity:1;fill:none;stroke:#000000;stroke-width:3;stroke-miterlimit:10"
   inkscape:connector-curvature="0"
   id="path12"
   d="m 917.205,172.954 v 3.25 c 0,0 27,12.75 21.75,40.5 h 1.5 c 0,0 8,-15.75 -6.25,-32.25 v -2.25 c 0,0 38.75,4 35.5,27 h 1.75 c 0,0 6.25,-14.75 -14.75,-24 l 1.75,-5.25"
   stroke-miterlimit="10" />
		
		<path
   style="opacity:1;fill:none;stroke:#000000;stroke-miterlimit:10"
   inkscape:connector-curvature="0"
   id="path16"
   d="m 916.205,176.454 c 0,0 -18,-0.375 -18,12.375 0,12.75 0.277,26.363 16.375,31.875 32.125,11 58,-4.875 58,-4.875 0,0 10.25,-6.875 9.875,-18.75 -0.375,-11.875 -2.75,-12 -2.75,-12"
   stroke-miterlimit="10" />
		
		
		
		
	<path
   sodipodi:nodetypes="ccccscccccsscsccccccccscccccccsccsc"
   style="opacity:1;fill:none;stroke:#000000;stroke-width:3;stroke-miterlimit:10"
   inkscape:connector-curvature="0"
   id="path7"
   d="m 1010.205,193.954 c 71.332,10 98.5,74.667 103.166,76.667 4.668,2 32.668,0.667 58.668,-8 26,-8.666 35.332,-2 35.332,-2 0,0 202,76 207.334,78.667 5.332,2.666 6,-6 6,-6 l 4,-58 c 1.332,-18.667 4,-36 8,-69.334 4,-33.333 -10,-31.333 -10,-31.333 l -262,-24.667 c 0,0 -22,-2.5 -33,7.5 -11,10 -43.25,15.75 -54.5,9.25 -11.25,-6.5 -100.5,-39.5 -100.5,-39.5 0,0 -0.25,-14.5 -4.25,-16.5 -4,-2 -21.5,3 -21.5,3 l -43,-13.5 -17.75,-3.5 -5,-3.416 H 536.65253 495.8552 v 3.166 h -5 c 0,0 -3.167,2.833 -3.167,13.5 0,10.667 3.5,12.834 3.5,12.834 h 10.1828 v 14.833 c 0,0 1.333,3 9.333,1.667 l 282.5,23.666 h 14.5 l 93.251,10.125 c 0,0 -7.375,4.375 -7.375,14.875 0,10.5 -1.375,30.5 17.375,36.25 0,0 40.625,11.875 65,-5.25 0,0 10.25,-6.75 14.5,-17.5 4.25,-10.75 19.75,-7.5 19.75,-7.5 z"
   stroke-miterlimit="10" /></g>
</g></g><g
   inkscape:groupmode="layer"
   id="layer3"
   inkscape:label="DETAIL"
   style="display:inline"><polyline
     style="display:inline;opacity:1;fill:none;stroke:#000000;stroke-miterlimit:10"
     id="polyline8"
     points="963.205,124.454 996.205,162.454 949.205,177.454   "
     stroke-miterlimit="10"
     transform="matrix(-1,0,0,1,1434.9289,-41.288009)" /><path
     style="display:inline;opacity:1;fill:none;stroke:#000000;stroke-miterlimit:10"
     inkscape:connector-curvature="0"
     id="path20"
     d="m 1030.371,164.621 9.334,14.333 -15.666,8 c 0,0 63.334,17.334 100.666,67 l 35,-10.666 c 0,0 -11.668,-47.334 -129.334,-78.667 z"
     stroke-miterlimit="10"
     transform="matrix(-1,0,0,1,1434.9289,-41.288009)" /><polyline
     style="display:inline;opacity:1;fill:none;stroke:#000000;stroke-miterlimit:10"
     id="polyline22"
     points="881.205,93.288 882.705,99.704 882.705,135.954   "
     stroke-miterlimit="10"
     transform="matrix(-1,0,0,1,1434.9289,-41.288009)" /><line
     style="display:inline;opacity:1;fill:none;stroke:#000000;stroke-width:0.736689;stroke-miterlimit:10"
     id="line24"
     y2="56.288242"
     x2="943.46954"
     y1="58.540638"
     x1="552.38843"
     stroke-miterlimit="10" /><line
     style="display:inline;opacity:1;fill:none;stroke:#000000;stroke-width:3;stroke-miterlimit:10"
     id="line14"
     y2="172.85919"
     x2="923.08002"
     y1="172.35919"
     x1="898.58002"
     stroke-miterlimit="10"
     transform="matrix(-1,0,0,1,1434.9289,-41.288009)" /><line
     style="display:inline;opacity:1;fill:none;stroke:#000000;stroke-miterlimit:10"
     id="line18"
     y2="104.788"
     x2="898.37097"
     y1="112.954"
     x1="929.91199"
     stroke-miterlimit="10"
     transform="matrix(-1,0,0,1,1434.9289,-41.288009)" /></g></svg>
